<svg width="149" height="38" viewBox="0 0 149 38" fill="none" xmlns="http://www.w3.org/2000/svg">
<path d="M20.6663 5.45583L18.9156 2.28564L17.1649 5.45583L13.965 7.18969L17.1638 8.92245L18.9167 12.0937L20.6663 8.92245L23.8684 7.18751L20.6663 5.45583Z" fill="url(#paint0_linear_2963_11940)"/>
<path d="M23.9422 14.4713L22.6292 12.0937L21.3161 14.4713L18.9162 15.7717L21.3153 17.0713L22.63 19.4497L23.9422 17.0713L26.3438 15.7701L23.9422 14.4713Z" fill="url(#paint1_linear_2963_11940)"/>
<path d="M2.30468 7.03634L7.41009 8.98841L12.7713 7.90061L10.8001 12.9592L11.8972 18.2699L6.78816 16.3187L1.42969 17.4021L3.39945 12.3468L2.30468 7.03634Z" fill="url(#paint2_linear_2963_11940)"/>
<path d="M9.88826 25.9388L9.01292 24.3537L8.13757 25.9388L6.53763 26.8058L8.13702 27.6721L9.01347 29.2578L9.88826 27.6721L11.4893 26.8047L9.88826 25.9388Z" fill="url(#paint3_linear_2963_11940)"/>
<path fill-rule="evenodd" clip-rule="evenodd" d="M13.6274 20.3414C14.4976 19.4796 15.9085 19.4796 16.7786 20.3414L27.9199 31.3755C28.7901 32.2373 28.7901 33.6346 27.9199 34.4964C27.0497 35.3582 25.6389 35.3582 24.7687 34.4964L13.6274 23.4623C12.7572 22.6005 12.7572 21.2032 13.6274 20.3414ZM14.6769 21.3814C14.9669 21.0941 15.4372 21.0941 15.7273 21.3814L16.9652 22.6074C17.2552 22.8946 17.2552 23.3604 16.9652 23.6477C16.6751 23.935 16.2048 23.935 15.9148 23.6477L14.6769 22.4217C14.3868 22.1344 14.3868 21.6686 14.6769 21.3814Z" fill="url(#paint4_linear_2963_11940)"/>
<path d="M56.435 12.704V14.104H63.015V28.356C63.015 28.9533 62.959 29.448 62.847 29.84C62.735 30.2507 62.5577 30.5773 62.315 30.82C62.091 31.0813 61.8017 31.268 61.447 31.38C61.111 31.5107 60.7097 31.604 60.243 31.66L58.059 31.884L57.023 28.636L58.535 28.496C58.983 28.4587 59.2723 28.3747 59.403 28.244C59.5523 28.1133 59.627 27.8147 59.627 27.348V26.592H56.435V30.848H53.271V26.592H50.163V31.772H46.775V14.104H53.271V12.704H47.083V10.772L45.263 13.432C45.0203 13.208 44.703 12.928 44.311 12.592C43.9377 12.256 43.5363 11.9107 43.107 11.556C42.6777 11.1827 42.2577 10.828 41.847 10.492C41.4363 10.1373 41.0817 9.83867 40.783 9.596L42.771 6.852C43.051 7.03867 43.3777 7.28133 43.751 7.58C44.1243 7.87867 44.5163 8.196 44.927 8.532C45.3377 8.868 45.7297 9.204 46.103 9.54C46.4763 9.85733 46.803 10.1373 47.083 10.38V9.568H53.271V6.74L56.435 6.88V9.568H59.375C59.0763 9.30667 58.787 9.05467 58.507 8.812C58.227 8.56933 57.9843 8.35467 57.779 8.168L59.571 6.124C59.9443 6.42267 60.4017 6.796 60.943 7.244C61.503 7.692 62.0817 8.17733 62.679 8.7L61.979 9.568H63.939V12.704H56.435ZM44.143 19.956C43.8817 19.6947 43.5457 19.3773 43.135 19.004C42.7243 18.6307 42.295 18.2573 41.847 17.884C41.4177 17.492 40.9883 17.1187 40.559 16.764C40.1297 16.3907 39.7657 16.092 39.467 15.868L41.483 13.152C41.819 13.3947 42.1923 13.684 42.603 14.02C43.0323 14.356 43.4617 14.7013 43.891 15.056C44.339 15.4107 44.759 15.7653 45.151 16.12C45.5617 16.456 45.907 16.7453 46.187 16.988L44.143 19.956ZM50.163 17.296V18.836H53.271V17.296H50.163ZM56.435 17.296V18.836H59.627V17.296H56.435ZM44.843 21.328L46.243 21.804C46.075 22.4573 45.8603 23.2133 45.599 24.072C45.3563 24.9307 45.095 25.808 44.815 26.704C44.535 27.5813 44.255 28.44 43.975 29.28C43.7137 30.12 43.471 30.848 43.247 31.464L39.887 30.26C39.9803 30.0547 40.111 29.7 40.279 29.196C40.447 28.7107 40.6337 28.16 40.839 27.544C41.0443 26.9093 41.259 26.2467 41.483 25.556C41.707 24.8467 41.9123 24.1747 42.099 23.54C42.3043 22.8867 42.4817 22.308 42.631 21.804C42.7803 21.3 42.8923 20.9173 42.967 20.656L44.843 21.328ZM53.271 23.512V21.888H50.163V23.512H53.271ZM59.627 23.512V21.888H56.435V23.512H59.627ZM72.2375 13.712C72.0322 13.3573 71.7615 12.956 71.4255 12.508C71.1082 12.06 70.7722 11.612 70.4175 11.164C70.0628 10.716 69.7082 10.2867 69.3535 9.876C69.0175 9.46533 68.7095 9.11067 68.4295 8.812L71.0335 6.712C71.2948 6.992 71.5935 7.33733 71.9295 7.748C72.2842 8.15867 72.6388 8.588 72.9935 9.036C73.3482 9.46533 73.6842 9.89467 74.0015 10.324C74.3375 10.7347 74.6175 11.0987 74.8415 11.416L72.2375 13.712ZM92.0615 17.8V20.908H74.4495V17.8H78.0055L78.4255 15.392H75.7655V12.424H78.9295L79.2375 10.604H75.2335V7.496H90.7735V10.604H82.6255L82.2895 12.424H89.5695L89.4295 17.8H92.0615ZM76.2415 22.056H90.3815V31.24H76.2415V27.32C75.8868 27.6373 75.4575 28.0107 74.9535 28.44C74.4495 28.8693 73.9922 29.2427 73.5815 29.56C73.2268 29.8773 72.9002 30.1667 72.6015 30.428C72.3215 30.708 72.0695 30.96 71.8455 31.184L69.6055 28.692C69.8668 28.3747 70.0255 28.076 70.0815 27.796C70.1375 27.516 70.1655 27.18 70.1655 26.788V18.052H67.5895V14.86H73.4695V25.36L75.3735 23.764L76.2415 25.78V22.056ZM81.3655 17.8H85.9855L86.0695 15.392H81.7855L81.3655 17.8ZM79.5175 28.048H86.9655V25.164H79.5175V28.048ZM108.788 21.468C108.975 22.308 109.32 23.1107 109.824 23.876C110.347 24.6227 111.047 25.3227 111.924 25.976C112.82 26.6107 113.912 27.1893 115.2 27.712C116.488 28.2347 118.019 28.692 119.792 29.084L118.756 32.304C115.919 31.5573 113.548 30.6893 111.644 29.7C109.759 28.7107 108.321 27.46 107.332 25.948C106.38 27.236 104.961 28.384 103.076 29.392C101.209 30.4187 98.848 31.38 95.992 32.276L94.424 29.084C96.4027 28.6173 98.1013 28.104 99.52 27.544C100.957 26.9653 102.133 26.34 103.048 25.668C103.963 24.996 104.635 24.2773 105.064 23.512C105.493 22.728 105.708 21.9067 105.708 21.048V19.48H99.24C99.576 19.7413 99.9307 20.04 100.304 20.376C100.696 20.6933 101.088 21.0293 101.48 21.384C101.872 21.72 102.245 22.056 102.6 22.392C102.973 22.728 103.3 23.0453 103.58 23.344L101.424 26.06C101.107 25.7053 100.752 25.332 100.36 24.94C99.9867 24.5293 99.5947 24.128 99.184 23.736C98.7733 23.344 98.3627 22.9707 97.952 22.616C97.56 22.2427 97.1867 21.916 96.832 21.636L98.652 19.48H97.364V16.428H113.52V15.056H98.344V12.2H113.52V10.828H97.644V7.72H116.796V19.48H115.76L117.776 21.58C117.459 21.9347 117.095 22.3173 116.684 22.728C116.273 23.12 115.853 23.5213 115.424 23.932C114.995 24.324 114.565 24.7067 114.136 25.08C113.707 25.4533 113.315 25.78 112.96 26.06L110.748 23.624C111.084 23.344 111.439 23.0267 111.812 22.672C112.204 22.3173 112.596 21.9627 112.988 21.608C113.38 21.2347 113.763 20.8707 114.136 20.516C114.509 20.1427 114.855 19.7973 115.172 19.48H108.788V21.412V21.468ZM143.043 27.18C143.08 27.0493 143.117 26.8533 143.155 26.592C143.192 26.312 143.22 26.088 143.239 25.92L146.403 27.068C146.365 27.3293 146.328 27.5627 146.291 27.768C146.272 27.9733 146.235 28.2253 146.179 28.524C146.067 29.1773 145.917 29.6907 145.731 30.064C145.544 30.456 145.292 30.7547 144.975 30.96C144.657 31.184 144.247 31.3333 143.743 31.408C143.257 31.5013 142.651 31.576 141.923 31.632C139.776 31.7813 137.639 31.7813 135.511 31.632C134.839 31.5947 134.26 31.5107 133.775 31.38C133.289 31.268 132.879 31.072 132.543 30.792C132.225 30.5307 131.983 30.1667 131.815 29.7C131.665 29.2333 131.591 28.636 131.591 27.908V26.508L122.715 26.956L122.659 23.932L131.591 23.484V22.168L124.787 22.504L124.731 19.564L131.591 19.2V18.024C130.359 18.1173 129.155 18.192 127.979 18.248C126.821 18.304 125.72 18.3507 124.675 18.388L124.367 15.616C126.177 15.5787 128.081 15.4947 130.079 15.364C132.095 15.2333 134.073 15.0653 136.015 14.86L133.271 13.6C133.532 13.2827 133.784 12.9653 134.027 12.648C134.288 12.312 134.521 11.976 134.727 11.64H131.535C131.74 12.032 131.936 12.4147 132.123 12.788C132.309 13.1427 132.449 13.4507 132.543 13.712L129.687 14.972C129.537 14.5613 129.323 14.0387 129.043 13.404C128.763 12.7693 128.483 12.1813 128.203 11.64H127.951C127.465 12.368 126.961 13.068 126.439 13.74C125.935 14.3933 125.421 14.9907 124.899 15.532L122.155 13.404C122.64 12.9373 123.125 12.4147 123.611 11.836C124.096 11.2573 124.544 10.66 124.955 10.044C125.384 9.40933 125.767 8.77467 126.103 8.14C126.457 7.50533 126.737 6.908 126.943 6.348L130.387 6.992C130.275 7.272 130.153 7.56133 130.023 7.86C129.911 8.14 129.78 8.42 129.631 8.7H134.839V11.472C135.361 10.6507 135.809 9.81067 136.183 8.952C136.556 8.09333 136.892 7.216 137.191 6.32L140.495 7.048L139.823 8.7H146.487V11.64H142.707C142.875 11.9573 143.024 12.256 143.155 12.536C143.304 12.7973 143.425 13.0213 143.519 13.208L140.971 14.3C141.568 14.2067 142.137 14.1227 142.679 14.048C143.22 13.9733 143.733 13.8893 144.219 13.796L144.807 16.484C143.575 16.708 142.119 16.932 140.439 17.156C138.759 17.3613 136.995 17.548 135.147 17.716V19.032L143.911 18.584L144.023 21.552L135.147 22V23.316L146.935 22.728L146.963 25.724L135.147 26.312V27.18C135.147 27.46 135.156 27.684 135.175 27.852C135.212 28.02 135.277 28.1507 135.371 28.244C135.483 28.3373 135.623 28.4027 135.791 28.44C135.977 28.4773 136.229 28.5053 136.547 28.524C138.059 28.636 139.589 28.636 141.139 28.524C141.531 28.5053 141.839 28.4773 142.063 28.44C142.287 28.384 142.464 28.3093 142.595 28.216C142.725 28.104 142.819 27.9733 142.875 27.824C142.931 27.656 142.987 27.4413 143.043 27.18ZM138.535 11.64C138.273 12.2 137.993 12.7413 137.695 13.264C137.396 13.7867 137.088 14.3 136.771 14.804C137.461 14.7107 138.133 14.636 138.787 14.58C139.459 14.5053 140.103 14.4213 140.719 14.328C140.588 13.9733 140.42 13.5533 140.215 13.068C140.028 12.564 139.832 12.088 139.627 11.64H138.535Z" fill="url(#paint5_linear_2963_11940)"/>
<defs>
<linearGradient id="paint0_linear_2963_11940" x1="7.49999" y1="33" x2="-12.0688" y2="24.7802" gradientUnits="userSpaceOnUse">
<stop stop-color="#B469FF"/>
<stop offset="0.549411" stop-color="#746FFF"/>
<stop offset="1" stop-color="#62BAFF"/>
</linearGradient>
<linearGradient id="paint1_linear_2963_11940" x1="7.49999" y1="33" x2="-12.0688" y2="24.7802" gradientUnits="userSpaceOnUse">
<stop stop-color="#B469FF"/>
<stop offset="0.549411" stop-color="#746FFF"/>
<stop offset="1" stop-color="#62BAFF"/>
</linearGradient>
<linearGradient id="paint2_linear_2963_11940" x1="7.49999" y1="33" x2="-12.0688" y2="24.7802" gradientUnits="userSpaceOnUse">
<stop stop-color="#B469FF"/>
<stop offset="0.549411" stop-color="#746FFF"/>
<stop offset="1" stop-color="#62BAFF"/>
</linearGradient>
<linearGradient id="paint3_linear_2963_11940" x1="7.49999" y1="33" x2="-12.0688" y2="24.7802" gradientUnits="userSpaceOnUse">
<stop stop-color="#B469FF"/>
<stop offset="0.549411" stop-color="#746FFF"/>
<stop offset="1" stop-color="#62BAFF"/>
</linearGradient>
<linearGradient id="paint4_linear_2963_11940" x1="7.49999" y1="33" x2="-12.0688" y2="24.7802" gradientUnits="userSpaceOnUse">
<stop stop-color="#B469FF"/>
<stop offset="0.549411" stop-color="#746FFF"/>
<stop offset="1" stop-color="#62BAFF"/>
</linearGradient>
<linearGradient id="paint5_linear_2963_11940" x1="52.5" y1="38" x2="136.44" y2="-16.8451" gradientUnits="userSpaceOnUse">
<stop stop-color="#A348FF"/>
<stop offset="0.4375" stop-color="#706BFF"/>
<stop offset="1" stop-color="#319FFF"/>
</linearGradient>
</defs>
</svg>
