<svg width="1962" height="596" xmlns="http://www.w3.org/2000/svg" xmlns:xlink="http://www.w3.org/1999/xlink" xml:space="preserve" overflow="hidden"><defs><clipPath id="clip0"><rect x="1340" y="700" width="515" height="477"/></clipPath><clipPath id="clip1"><rect x="1340" y="700" width="515" height="477"/></clipPath></defs><g transform="translate(-1338 -696)"><g><g clip-path="url(#clip0)"><g clip-path="url(#clip1)"><g><path d="M1384.1 377.741 1376.12 377.741C1375.66 377.741 1375.28 377.664 1374.82 377.664L1253.25 377.664 1253.25 298.681 1363.85 298.681C1364.39 298.681 1364.85 298.604 1365.34 298.604L1372.21 298.604C1382.76 298.604 1391.28 290.049 1391.28 279.538L1391.28 277.888C1391.28 267.377 1382.72 258.824 1372.21 258.824L1320.46 258.824C1320.46 258.824 1320.16 258.862 1320 258.862L1253.25 258.862 1253.25 181.91 1363.04 181.91C1376.32 181.91 1382.95 176.387 1382.95 165.377L1382.95 157.935C1382.95 147.118 1376.32 141.747 1363.04 141.747L1253.25 141.747 1253.25 128.59C1253.25 119.805 1246.73 115.432 1233.73 115.432L1203.23 115.432C1189.96 115.432 1183.32 120.956 1183.32 131.965L1183.32 141.747 1138.59 141.747 1142.24 133.653 1142.66 131.62C1142.66 130.047 1141.97 128.705 1140.63 127.554 1139.01 126.441 1137.37 125.521 1135.75 124.869 1133.3 123.986 1131.27 123.411 1129.65 123.181 1127.47 122.72 1125.7 122.413 1124.36 122.183L1098.35 118.462C1096.43 118.002 1094.55 117.772 1092.67 117.772 1083.47 117.772 1077.21 121.838 1073.95 129.932L1045.49 198.099C1044.42 200.593 1043.88 202.817 1043.88 204.85 1043.88 208.456 1045.11 211.257 1047.52 213.289 1049.98 215.553 1053.74 217.241 1058.92 218.353L1084.12 222.419C1086.27 222.879 1088.3 223.109 1090.22 223.109 1098.89 223.109 1105.14 219.273 1108.94 211.64L1123.98 181.949 1183.32 181.949 1183.32 258.9 1106.75 258.9C1106.75 258.9 1106.45 258.862 1106.29 258.862L1054.54 258.862C1043.99 258.862 1035.48 267.416 1035.48 277.928L1035.48 279.576C1035.48 290.125 1044.03 298.642 1054.54 298.642L1062.68 298.642C1063.17 298.642 1063.64 298.719 1064.17 298.719L1183.32 298.719 1183.32 377.703 1060.11 377.703C1059.65 377.703 1059.26 377.779 1058.8 377.779L1051.05 377.779C1040.54 377.779 1031.99 386.335 1031.99 396.845L1031.99 398.494C1031.99 409.043 1040.54 417.56 1051.05 417.56L1055.16 417.56C1056.69 417.751 1058.34 417.866 1060.11 417.866L1375.24 417.866C1377.01 417.866 1378.66 417.751 1380.19 417.56L1384.14 417.56C1394.65 417.56 1403.21 409.005 1403.21 398.494L1403.21 396.845C1403.21 386.296 1394.65 377.779 1384.14 377.779L1384.1 377.741Z" fill="#858599" fill-rule="nonzero" fill-opacity="1" transform="matrix(1 0 0 1.00864 1341 701)"/><path d="M903.544 104.279 905.99 103.795C921.806 100.663 937.165 110.946 940.298 126.761L951.981 185.765C955.112 201.581 944.83 216.94 929.014 220.071L926.568 220.555C910.752 223.687 895.393 213.405 892.262 197.589L880.577 138.586C877.446 122.77 887.728 107.411 903.544 104.279Z" fill="#858599" fill-rule="nonzero" fill-opacity="1" transform="matrix(1 0 0 1.00864 1341 701)"/><path d="M888.66 262.922 935.422 262.922 935.384 262.999C948.657 262.999 955.293 268.523 955.293 279.532L954.871 394.269C954.871 399.448 953.108 403.514 949.578 406.43 946.048 409.345 941.138 410.802 934.924 410.802L879.377 410.994C879.16 411.01 878.948 411.038 878.738 411.066 878.43 411.108 878.123 411.147 877.805 411.147L827.014 411.147C816.503 411.147 807.987 402.632 807.987 392.12L807.987 390.471C807.987 379.961 816.503 371.444 827.014 371.444L834.764 371.444 834.866 371.435C835.672 371.361 836.45 371.29 837.333 371.29L858.854 371.444 877.843 371.444C878.073 371.444 878.293 371.482 878.514 371.521 878.734 371.559 878.955 371.597 879.185 371.597L879.76 371.597C884.633 371.636 888.584 367.685 888.584 362.814L888.584 312.254C888.584 307.382 884.633 303.469 879.799 303.469L764.409 303.469C759.538 303.469 755.624 307.42 755.624 312.293L756.009 410.802C756.009 415.712 754.55 419.702 751.596 422.81 751.328 423.117 750.983 423.423 750.638 423.692 747.185 426.339 742.466 427.681 736.521 427.681L708.862 427.681C695.589 427.681 688.953 422.156 688.953 411.147L688.953 312.254C688.953 307.382 685.002 303.469 680.167 303.469L620.21 303.469C619.098 303.469 618.101 303.392 617.102 303.316L609.047 303.316C598.46 303.316 589.905 294.724 589.905 284.175L589.905 282.525C589.905 271.937 598.498 263.382 609.047 263.382L618.714 263.382C618.959 263.382 619.193 263.364 619.434 263.345 619.683 263.326 619.937 263.307 620.21 263.307L680.167 263.307C685.04 263.307 688.953 259.355 688.953 254.522L688.953 181.636C688.953 176.765 685.002 172.852 680.167 172.852L620.21 172.852C620.037 172.852 619.875 172.842 619.711 172.833 619.549 172.823 619.385 172.814 619.213 172.814L609.047 172.814C598.46 172.814 589.905 164.221 589.905 153.672L589.905 152.023C589.905 141.435 598.498 132.881 609.047 132.881L616.527 132.881C617.716 132.766 618.944 132.689 620.248 132.689L680.207 132.689C685.078 132.689 688.991 128.661 688.991 123.904 688.991 119.147 691.178 116.117 695.512 114.774 697.393 114.122 700.117 113.777 703.646 113.777L742.697 113.777C751.366 113.777 755.7 116.923 755.7 123.214L755.7 123.904C755.7 128.738 759.614 132.689 764.447 132.689L848.804 132.996C862.076 132.996 868.713 138.366 868.713 149.184L868.713 254.483C868.713 259.355 872.664 263.269 877.498 263.269L888.66 263.269 888.66 262.922ZM794.33 263.269C798.819 263.269 802.464 259.623 802.464 255.135L802.464 180.908C802.464 176.42 798.819 172.776 794.33 172.776L763.795 172.776C759.308 172.776 755.662 176.42 755.662 180.908L755.662 255.135C755.662 259.623 759.308 263.269 763.795 263.269L794.33 263.269Z" fill="#858599" fill-rule="evenodd" fill-opacity="1" transform="matrix(1 0 0 1.00864 1341 701)"/><path d="M118.845 400.318C118.845 400.318 166.919 394.974 169.592 394.083 172.264 393.192 222.121 395.864 222.121 395.864L254.163 403.881 283.533 414.57 291.55 417.243 335.171 401.209 387.7 393.192 423.305 394.083 450.892 397.646 462.472 401.209 461.581 449.283 437.532 443.048 391.238 439.485 359.196 442.157 331.608 448.392 306.691 456.409 288.878 463.535 251.491 449.283 206.088 440.376 153.56 440.376 118.845 446.611 118.845 400.318Z" fill="#858599" fill-rule="nonzero" fill-opacity="0.5" transform="matrix(1 0 0 1.00864 1341 701)"/><path d="M288.739 471.922C207.806 427.359 121.849 454.082 120.983 454.355L111.284 457.448 111.284 396.086 116.43 394.428C120.167 393.216 209.191 365.38 295.89 413.109L288.739 426.124C219.163 387.821 145.899 402.197 126.13 407.145L126.13 437.579C151.961 431.443 224.705 419.689 295.89 458.882L288.739 471.897 288.739 471.922Z" fill="#858599" fill-rule="nonzero" fill-opacity="1" transform="matrix(1 0 0 1.00864 1341 701)"/><path d="M287.73 471.922 280.579 458.908C351.765 419.716 424.507 431.468 450.339 437.605L450.339 407.17C430.595 402.197 357.307 387.846 287.73 426.149L280.579 413.134C367.278 365.405 456.302 393.241 460.039 394.453L465.184 396.111 465.184 457.498 455.486 454.355C454.644 454.082 368.688 427.361 287.73 471.922Z" fill="#858599" fill-rule="nonzero" fill-opacity="1" transform="matrix(1 0 0 1.00864 1341 701)"/><path d="M380.904 331.979C380.93 326.61 379.049 322.008 375.238 318 371.478 314.189 366.925 312.383 361.679 312.531 356.311 312.902 351.734 315.055 347.873 318.815 344.112 323.368 342.282 328.12 342.307 333.513 342.282 338.685 344.112 343.286 347.799 347.072 351.56 351.08 356.162 352.912 361.606 352.54 366.9 352.565 371.453 350.412 375.19 346.256 378.999 342.099 380.881 337.324 380.93 331.954L380.904 331.979Z" fill="#858599" fill-rule="nonzero" fill-opacity="0.5" transform="matrix(1 0 0 1.00864 1341 701)"/><path d="M231.016 346.281C234.826 342.124 236.707 337.572 236.682 332.178 236.707 326.809 234.826 321.811 231.064 317.605 227.032 314.191 222.528 312.582 217.482 312.731 211.939 313.3 207.362 315.254 203.675 318.619 199.914 322.775 198.034 327.725 197.984 333.315 197.984 338.685 199.889 343.288 203.65 347.098 207.287 351.107 211.864 352.912 217.283 352.565 222.875 352.393 227.402 350.439 230.99 346.281L231.016 346.281Z" fill="#858599" fill-rule="nonzero" fill-opacity="0.5" transform="matrix(1 0 0 1.00864 1341 701)"/><path d="M287.456 400.047C272.586 400.047 257.987 398.809 246.804 395.94 216.716 388.221 192.766 374.29 173.59 353.332 153.672 331.534 152.411 310.527 151.075 288.283 150.901 285.439 150.728 282.544 150.505 279.6 148.724 254.98 137.095 216.505 136.971 216.134L136.055 213.116 137.911 210.566C155.033 187.259 176.138 170.608 202.489 159.622 226.689 149.526 255.489 144.256 290.549 143.489 348.917 140.075 412.556 164.347 441.901 201.239L443.756 203.564 430.47 265.546C430.321 268.886 429.331 286.329 424.531 321.983 418.89 363.75 367.301 387.651 340.801 394.431 327.341 397.895 307.127 400.047 287.431 400.047L287.456 400.047ZM149.961 215.516C152.831 225.388 161.491 256.539 163.1 278.659 163.322 281.653 163.495 284.622 163.669 287.517 164.955 309.191 165.995 326.313 182.894 344.821 200.361 363.923 222.283 376.666 249.922 383.742 273.353 389.754 315.589 387.899 337.684 382.208 356.711 377.334 407.163 356.673 412.06 320.252 417.232 281.926 417.9 264.63 417.925 264.457L417.925 263.913 430.197 206.757C410.898 169.692 399.442 162.095 374.898 152.843 349.016 143.069 317.469 154.45 291.168 156.009L290.945 156.009C223.892 157.469 174.728 135.968 149.936 215.491L149.961 215.516Z" fill="#858599" fill-rule="nonzero" fill-opacity="1" transform="matrix(1 0 0 1.00864 1341 701)"/><path d="M419.273 211.556C424.05 223.853 426.078 230.014 430.557 241.272 430.557 241.272 442.408 222.245 446.145 208.636 449.906 194.879 447.605 177.361 444.66 160.982 437.262 133.492 431.521 131.364 409.328 115.084 399.479 108.329 388.346 102.341 375.752 97.0709 348.51 86.8026 321.144 81.1117 293.606 79.9241 266.314 79.454 238.776 83.5366 211.187 92.1223 198.37 96.576 186.939 101.92 176.82 108.106 153.76 123.026 137.701 144.033 128.769 171.002 126.369 181.146 122.559 190.896 123.499 200.298 127.804 243.424 155.937 262.353 154.006 251.96 151.508 238.55 153.116 230.632 156.555 217.815 163.088 193.568 178.552 175.654 202.973 164.247L203.047 164.247C207.798 162.911 231.872 149.228 263.839 165.583 272.327 169.222 287.173 179.069 294.595 178.846 302.043 178.623 312.756 171.447 320.55 166.573 335.199 157.394 349.079 154.251 367.413 160.066 394.061 168.453 410.416 187.407 419.273 211.581L419.273 211.556Z" fill="#858599" fill-rule="nonzero" fill-opacity="1" transform="matrix(1 0 0 1.00864 1341 701)"/><path d="M26.1118 190.056 46.1534 195.944 69.1395 194.757 85.6428 183.547 103.334 167.639 116.299 149.948 132.803 132.85 148.712 122.829 170.51 118.103 155.764 144.034 143.393 156.406 117.462 192.356 105.685 210.047 92.1254 219.474 72.6777 232.44C72.6777 232.44 55.5805 235.978 53.8238 236.572 52.0671 237.165 37.9142 239.516 37.9142 239.516L25.5427 238.922 16.1158 235.978 24.949 218.287 26.1366 205.322 26.1366 190.005 26.1118 190.056Z" fill="#858599" fill-rule="nonzero" fill-opacity="0.5" transform="matrix(1 0 0 1.00864 1341 701)"/><path d="M77.381 88.1148 75.5994 101.649 70.8984 111.101 65.0096 119.934 50.2628 128.767 67.9541 137.6 87.4018 145.271 107.443 149.402 116.277 149.997 137.506 135.25 159.898 115.208 152.228 112.858 124.541 109.913 103.905 102.243 89.1585 94.5974 77.381 88.1148Z" fill="#858599" fill-rule="nonzero" fill-opacity="0.5" transform="matrix(1 0 0 1.00864 1341 701)"/><path d="M32.65 244.513C26.4149 244.513 19.8581 244.142 12.9796 243.424L0.014402 241.939 6.39808 237.832 9.8125 234.146C10.2826 233.428 11.6435 231.052 13.8951 226.054L13.8951 226.006C17.5323 218.187 18.7942 205.098 17.6808 187.11L16.9137 175.01 26.2418 182.73C35.9904 190.796 48.2134 192.726 63.5785 188.569 77.3107 184.661 92.2553 171.844 107.942 150.516 122.367 129.756 143.127 115.677 169.701 108.65L172.199 107.982 189 121.071 173.907 119.983C172.496 121.344 171.086 122.803 169.8 124.412L169.502 124.783 169.107 125.129C160.447 140.519 148.05 155.711 135.654 172.338L135.481 172.636C133.576 175.976 131.621 179.44 129.493 182.879L129.493 183.052 128.8 184.165C116.107 204.8 102.152 220.265 87.3069 230.162 73.6736 239.712 55.3393 244.538 32.65 244.538L32.65 244.513ZM21.9117 233.676C47.5205 235.334 67.4879 231.275 81.3437 221.527L81.4427 221.453C94.8781 212.521 107.67 198.344 119.473 179.34 119.695 178.697 120.017 178.153 120.363 177.732 122.466 174.342 124.446 170.854 126.376 167.464L126.376 167.415C134.763 151.331 144.413 137.03 155.176 124.783 139.118 131.859 126.4 142.375 116.553 156.552L116.479 156.676C99.1339 180.306 82.7542 194.037 66.424 198.689 51.9989 202.573 39.3306 201.882 28.5922 196.636 28.8149 211.432 27.1324 222.542 23.4953 230.384 22.9508 231.622 22.4313 232.71 21.9613 233.676L21.9117 233.676Z" fill="#858599" fill-rule="nonzero" fill-opacity="1" transform="matrix(1 0 0 1.00864 1341 701)"/><path d="M33.8421 244.514C27.607 244.514 21.05 244.142 14.1715 243.426L15.2602 233.008C44.6546 236.101 67.2695 232.241 82.511 221.528L82.6347 221.453C96.0701 212.522 108.862 198.344 120.664 179.341 121.085 178.178 121.753 177.387 122.347 176.867L129.201 184.785C130.24 183.869 130.685 182.632 130.759 181.766L130.66 183.028 129.992 184.142C117.299 204.777 103.344 220.241 88.4988 230.138 74.8655 239.689 56.5312 244.514 33.8421 244.514Z" fill="#858599" fill-rule="nonzero" fill-opacity="1" transform="matrix(1 0 0 1.00864 1341 701)"/><path d="M123.386 144.082C121.159 144.23 118.932 144.354 116.705 144.428 99.0633 145.047 80.2341 140.123 60.6132 129.805 77.6114 118.819 82.3373 106.3 81.6692 95.017 85.727 98.2336 89.958 101.054 94.3622 103.454 123.212 119.71 153.695 122.284 205.803 107.71L202.265 97.8376C152.756 111.496 125.934 109.244 99.4345 94.2995 91.9126 90.2169 84.9352 84.724 78.7001 78.0187L77.9826 77.2517 67.2441 65.6226 69.2731 80.5673C69.57 81.8044 75.7309 110.976 47.5985 125.203L39.0869 129.508 47.3015 134.383C70.3124 148.066 92.6302 154.993 113.662 154.993L123.386 144.107 123.386 144.082Z" fill="#858599" fill-rule="nonzero" fill-opacity="1" transform="matrix(1 0 0 1.00864 1341 701)"/><path d="M255.926 304.836C252.659 304.836 249.592 302.807 248.081 299.391 241.079 283.408 235.587 276.752 227.298 266.683 218.909 256.513 201.045 239.292 198.102 236.794 194.167 233.453 193.054 228.899 195.404 225.758 196.592 224.199 200.106 221.056 207.331 225.857 221.978 235.556 254.491 264.727 263.274 288.158 266.491 296.67 263.273 302.46 258.968 304.217 257.954 304.637 256.939 304.811 255.901 304.811L255.926 304.836Z" fill="#858599" fill-rule="nonzero" fill-opacity="1" transform="matrix(1 0 0 1.00864 1341 701)"/><path d="M319.146 305.233C318.106 305.233 317.043 305.034 316.003 304.588 311.698 302.783 308.581 296.943 311.896 288.481 320.976 265.174 353.86 236.422 368.631 226.897 375.93 222.195 379.394 225.363 380.556 226.947 382.884 230.113 381.72 234.641 377.737 237.932 374.768 240.407 356.68 257.355 348.169 267.45 339.756 277.422 334.19 284.002 326.965 299.912 325.43 303.277 322.387 305.257 319.171 305.257L319.146 305.233Z" fill="#858599" fill-rule="nonzero" fill-opacity="1" transform="matrix(1 0 0 1.00864 1341 701)"/><path d="M351.433 49.6871C351.655 37.5384 345.742 27.0722 333.693 18.3133 321.445 9.72753 306.823 5.3975 289.823 5.27379 272.825 5.15007 258.251 9.3316 246.251 17.8679 234.177 26.4783 228.016 36.8208 227.868 48.8707 227.917 52.6316 228.239 56.0707 228.709 59.2873 273.766 44.7881 314.121 45.9757 349.701 62.875 350.666 58.3718 351.26 53.9924 351.433 49.6623L351.433 49.6871Z" fill="#858599" fill-rule="nonzero" fill-opacity="0.5" transform="matrix(1 0 0 1.00864 1341 701)"/><path d="M163.045 294.222 162.823 293.703C162.228 292.342 161.709 290.957 161.289 289.596L160.026 285.537 151.688 285.81 151.045 292.812C151.094 293.084 151.243 293.752 151.392 294.941L151.392 295.188C151.465 295.609 151.49 295.955 151.564 296.302 151.688 300.012 150.575 302.957 148.051 305.554 145.651 308.103 142.508 309.241 138.376 309.069 133.255 308.87 131.548 306.817 130.706 305.283 128.455 301.225 128.306 299.048 128.43 298.082 128.752 295.435 129.296 292.638 130.063 289.819 131.251 285.414 130.36 280.292 127.366 274.626L124.298 268.812C123.135 266.61 122.12 263.838 121.279 260.573 120.636 257.827 120.809 254.535 121.774 250.749 122.64 247.409 124.496 244.787 127.44 242.707 130.385 240.728 133.898 240.012 138.08 240.556L138.401 240.604 138.723 240.604C142.83 240.63 146.195 241.026 148.768 241.718 148.051 237.709 147.829 233.529 148.199 229.272 145.503 228.135 142.781 227.343 140.034 226.972L139.886 226.972 137.857 226.799C131.745 226.23 125.782 227.59 120.141 230.856 114.302 234.27 110.368 239.318 108.463 245.875 106.83 251.591 106.632 257.48 107.844 263.344 107.992 264.235 108.19 265.274 108.537 266.264 109.452 269.159 110.962 272.375 113.04 275.839 116.207 281.06 117.172 282.766 117.444 283.336L117.543 283.533C117.939 284.251 118.013 285.34 117.741 286.775L117.642 287.245C117.345 288.853 117.048 290.363 116.925 290.932 114.45 297.34 114.203 303.254 116.158 308.424 118.137 313.918 121.626 317.926 126.574 320.401 129.444 321.811 132.76 322.701 136.447 323.073 138.451 323.271 140.554 323.296 142.756 323.172 149.907 322.8 155.722 319.411 159.556 313.447 163.317 307.781 164.53 301.497 163.218 294.792L163.119 294.222 163.045 294.222Z" fill="#858599" fill-rule="nonzero" fill-opacity="1" transform="matrix(1 0 0 1.00864 1341 701)"/><path d="M470.325 237.215C468.395 230.732 464.386 225.709 458.399 222.27L458.375 222.27C453.006 219.203 447.266 217.94 441.277 218.51 441.054 218.51 440.831 218.56 440.609 218.583L438.63 218.831 438.457 218.831C434.646 219.45 430.835 220.885 427.125 223.037 427.149 223.335 427.199 223.656 427.247 223.953 427.594 227.739 427.421 231.476 426.778 235.112L428.93 234.247C431.678 233.133 435.413 232.217 440.337 231.476L440.609 231.426C444.371 230.659 447.611 231.352 450.779 233.652 454.119 236.077 456.371 239.096 457.657 242.831 458.72 246.346 458.869 249.365 458.127 252.037 457.212 255.377 456.172 258.346 455.035 260.844 453.674 263.715 452.287 266.51 450.928 269.06 448.873 272.869 448.131 277.002 448.749 281.306 449.268 285.068 449.814 288.186 450.432 290.858 450.877 292.714 450.605 295.088 449.64 297.909L449.591 298.033C448.799 300.556 444.543 301.918 442.069 302.512 436.428 303.848 433.904 301.794 432.394 299.939 429.821 296.623 428.609 293.035 428.684 289.002L428.783 287.84C428.906 286.676 429.029 286.082 429.079 285.859L428.906 278.634 419.652 278.857 418.663 282.817C418.316 284.178 417.871 285.514 417.302 286.85L417.054 287.418 416.955 288.037C415.867 294.619 417.228 300.878 420.963 306.668L421.062 306.792C425.144 312.68 430.984 315.922 437.936 316.17 439.793 316.269 441.598 316.218 443.306 316.071 447.413 315.699 451.075 314.611 454.218 312.854 458.844 310.306 462.136 306.222 464.065 300.705 465.896 295.287 465.525 289.398 462.976 283.188L462.358 279.525 462.308 279.254C462.012 277.942 462.136 276.655 462.63 275.369 463.596 273.067 464.907 270.396 466.514 267.352 468.617 263.64 469.979 260.499 470.72 257.827 471.092 256.638 471.34 255.6 471.414 254.56 472.379 248.745 472.008 242.932 470.275 237.266L470.325 237.215Z" fill="#858599" fill-rule="nonzero" fill-opacity="1" transform="matrix(1 0 0 1.00864 1341 701)"/><path d="M355.887 61.1936C356.603 57.2348 357.024 53.4986 357.173 49.7624 357.42 35.8569 350.715 23.832 337.206 14.0091 324.166 4.85422 308.405 0.153169 290.367 0.00471273 272.281-0.168487 256.594 4.43365 243.703 13.5885 230.218 23.2133 223.289 35.0651 223.117 48.8221L223.117 48.9459C223.142 51.6923 223.314 54.4388 223.661 57.3089 222.398 58.8182 221.707 60.476 221.632 62.2575L221.632 62.4554C221.632 67.1071 222.3 71.7587 223.71 76.2618L223.735 76.3856C225.665 82.0765 228.98 87.4951 233.607 92.4931L234.943 93.9283 247.117 95.2891C257.508 101.326 271.39 104.568 288.462 104.865 289.204 104.865 289.947 104.865 290.664 104.865 303.258 104.865 314.269 103.331 323.424 100.312L323.67 100.213C327.11 98.8769 330.45 97.2685 333.643 95.4128 343.342 96.3283 350.616 91.5529 354.351 81.8291L355.267 80.8394 355.219 79.4537C356.653 75.0494 359.177 66.4143 355.861 61.1936L355.887 61.1936ZM249.764 22.1247C260.8 14.2812 274.407 10.3719 290.268 10.4956 306.128 10.6193 319.885 14.7019 331.094 22.5453 341.758 30.2898 346.855 39.1477 346.681 49.4654 346.607 51.3707 346.458 53.3253 346.187 55.3543 328.174 47.8078 308.949 44.0469 288.586 44.0469 271.092 44.0469 252.783 46.8427 233.731 52.4099 233.657 51.2223 233.608 50.0345 233.583 48.8717 233.731 38.5292 239.026 29.7701 249.764 22.1247ZM346.582 71.3133 343.044 78.9589C343.044 78.9589 338.418 85.6394 333.37 84.7982L331.416 84.4766 329.733 85.5157C326.666 87.4209 323.399 89.0539 320.009 90.3653 311.473 93.1613 300.907 94.4974 288.636 94.3241 273.443 94.0273 261.27 91.3055 252.436 86.1838 252.165 86.0106 251.892 85.8373 251.645 85.7136L250.606 85.0703 240.065 83.9075C238.06 81.5568 235.216 76.6083 235.216 76.6083L232.321 68.2204C232.321 68.2204 232.172 64.6575 232.148 63.8411 274.804 50.4057 313.452 51.5192 347.028 67.1565 347.078 67.7752 346.582 71.3133 346.582 71.3133ZM349.725 79.1073 349.725 79.0331 349.799 79.1073 349.725 79.1073Z" fill="#858599" fill-rule="nonzero" fill-opacity="1" transform="matrix(1 0 0 1.00864 1341 701)"/></g></g></g><text fill="#858599" fill-opacity="1" font-family="Microsoft YaHei,Microsoft YaHei_MSFontService,sans-serif" font-style="normal" font-variant="normal" font-weight="700" font-stretch="normal" font-size="275" text-anchor="start" direction="ltr" writing-mode="lr-tb" unicode-bidi="normal" text-decoration="none" transform="matrix(1 0 0 1 1909.15 1061)">浦</text><text fill="#858599" fill-opacity="1" font-family="Microsoft YaHei,Microsoft YaHei_MSFontService,sans-serif" font-style="normal" font-variant="normal" font-weight="700" font-stretch="normal" font-size="275" text-anchor="start" direction="ltr" writing-mode="lr-tb" unicode-bidi="normal" text-decoration="none" transform="matrix(1 0 0 1 2184.15 1061)">语</text><text fill="#858599" fill-opacity="1" font-family="Microsoft YaHei,Microsoft YaHei_MSFontService,sans-serif" font-style="normal" font-variant="normal" font-weight="700" font-stretch="normal" font-size="275" text-anchor="start" direction="ltr" writing-mode="lr-tb" unicode-bidi="normal" text-decoration="none" transform="matrix(1 0 0 1 2459.15 1061)">·</text><text fill="#858599" fill-opacity="1" font-family="Microsoft YaHei,Microsoft YaHei_MSFontService,sans-serif" font-style="normal" font-variant="normal" font-weight="700" font-stretch="normal" font-size="275" text-anchor="start" direction="ltr" writing-mode="lr-tb" unicode-bidi="normal" text-decoration="none" transform="matrix(1 0 0 1 2580.04 1061)">灵</text><text fill="#858599" fill-opacity="1" font-family="Microsoft YaHei,Microsoft YaHei_MSFontService,sans-serif" font-style="normal" font-variant="normal" font-weight="700" font-stretch="normal" font-size="275" text-anchor="start" direction="ltr" writing-mode="lr-tb" unicode-bidi="normal" text-decoration="none" transform="matrix(1 0 0 1 2855.04 1061)">笔</text></g></g></svg>